<?xml version="1.0" encoding="UTF-8" standalone="no"?>
<!-- Generator: Adobe Illustrator 21.1.0, SVG Export Plug-In . SVG Version: 6.00 Build 0)  -->

<svg
   xmlns:dc="http://purl.org/dc/elements/1.1/"
   xmlns:cc="http://creativecommons.org/ns#"
   xmlns:rdf="http://www.w3.org/1999/02/22-rdf-syntax-ns#"
   xmlns:svg="http://www.w3.org/2000/svg"
   xmlns="http://www.w3.org/2000/svg"
   xmlns:sodipodi="http://sodipodi.sourceforge.net/DTD/sodipodi-0.dtd"
   xmlns:inkscape="http://www.inkscape.org/namespaces/inkscape"
   version="1.1"
   id="Layer_1"
   x="0px"
   y="0px"
   viewBox="0 0 1000 1000"
   style="enable-background:new 0 0 1000 1000;"
   xml:space="preserve"
   sodipodi:docname="chitter-files-logo.svg"
   inkscape:version="0.92.2 2405546, 2018-03-11"><metadata
   id="metadata13178"><rdf:RDF><cc:Work
       rdf:about=""><dc:format>image/svg+xml</dc:format><dc:type
         rdf:resource="http://purl.org/dc/dcmitype/StillImage" /><dc:title></dc:title></cc:Work></rdf:RDF></metadata><defs
   id="defs13176" /><sodipodi:namedview
   pagecolor="#ffffff"
   bordercolor="#666666"
   borderopacity="1"
   objecttolerance="10"
   gridtolerance="10"
   guidetolerance="10"
   inkscape:pageopacity="0"
   inkscape:pageshadow="2"
   inkscape:window-width="1920"
   inkscape:window-height="1021"
   id="namedview13174"
   showgrid="false"
   inkscape:zoom="0.58972706"
   inkscape:cx="1010.7004"
   inkscape:cy="445.08492"
   inkscape:window-x="0"
   inkscape:window-y="30"
   inkscape:window-maximized="1"
   inkscape:current-layer="Layer_1" />
<style
   type="text/css"
   id="style13155">
	.st0{fill:#8C2BD8;}
	.st1{fill:#231F20;stroke:#231F20;stroke-miterlimit:10;}
	.st2{fill:#FFFFFF;stroke:#231F20;stroke-miterlimit:10;}
</style>



<g
   id="g14109"
   transform="translate(-31.17506,-1.5000001e-6)"><g
     id="g14077"><path
       style="fill:#ffffff;fill-opacity:1;stroke:none;stroke-width:1px;stroke-linecap:butt;stroke-linejoin:miter;stroke-opacity:1"
       d="M 642.68585,34.772182 916.06715,312.94964 905.27578,450.83933 541.96643,320.14388 580.33573,28.776978 Z"
       id="path14072"
       inkscape:connector-curvature="0" /><path
       style="fill:#8c2bd8;fill-opacity:1;stroke:none;stroke-width:50;stroke-linejoin:round;stroke-miterlimit:4;stroke-dasharray:none;stroke-opacity:1"
       d="m 159.47317,20.564453 c -13.80655,0.0014 -24.99862,11.193453 -25,25 V 954.43555 c 10e-4,13.80655 11.19345,24.99862 25,25 h 743.40378 c 13.80655,-0.001 24.99862,-11.19345 25,-25 V 318.10547 c -2.4e-4,-6.63037 -2.63409,-12.98915 -7.32226,-17.67774 L 648.01367,27.886719 c -4.68859,-4.688168 -11.04736,-7.322025 -17.67773,-7.322266 z M 638.9082,54.136719 894.30469,309.5332 H 638.9082 Z"
       id="rect13199"
       inkscape:connector-curvature="0"
       sodipodi:nodetypes="ccccccccccccccc" /></g><g
     style="stroke-width:1.46927309"
     transform="matrix(0.68082443,0,0,0.68039294,120.25084,441.65254)"
     id="g14013"><g
       style="stroke-width:1.46927309"
       id="g13169">
	<g
   style="stroke-width:1.46927309"
   id="g13161">
		<path
   style="fill:#231f20;stroke:#231f20;stroke-width:1.46927309;stroke-miterlimit:10"
   inkscape:connector-curvature="0"
   class="st1"
   d="m 791.5,531.7 c 0,0 1,80.1 -60.8,120.6 -16.7,10.9 -59.6,12.7 -84.9,-1.8 -18.2,-10.4 -39.9,-18.6 -67.5,-48.2 -56.8,-60.9 -111.6,-30 -135.2,-11 -5.7,4.6 -10.9,10 -15.4,16.2 -9.8,13.4 -42,48.2 -114,52.2 -89.5,5 -103.8,-119.2 -102.2,-130.2 L 150.4,514 c -2.1,-14.9 73.7,-115.9 163.3,-109.7 89.3,6.2 117.4,75.3 117.4,75.3 0,0 67.2,91.8 142.6,-5.5 75.3,-97.3 154.1,-61.9 154.1,-61.9 0,0 106.5,46.4 130.6,96.3 z"
   id="path13159" />
	</g>
	<ellipse
   style="fill:#ffffff;stroke:#231f20;stroke-width:1.46927309;stroke-miterlimit:10"
   class="st2"
   cx="329.10001"
   cy="532.59998"
   rx="48.099998"
   ry="58.599998"
   id="ellipse13163" />
	<ellipse
   style="fill:#ffffff;stroke:#231f20;stroke-width:1.46927309;stroke-miterlimit:10"
   class="st2"
   cx="670.70001"
   cy="532.59998"
   rx="48.099998"
   ry="58.599998"
   id="ellipse13165" />
	<ellipse
   style="fill:#231f20;stroke:#231f20;stroke-width:1.46927309;stroke-miterlimit:10"
   class="st1"
   cx="509.29999"
   cy="617.09998"
   rx="45.200001"
   ry="23.6"
   id="ellipse13167" />
</g><path
       style="fill:#231f20;stroke:#231f20;stroke-width:1.94343853;stroke-miterlimit:10"
       inkscape:connector-curvature="0"
       class="st1"
       d="m 620.3,282.6 v 96.3 c 0,2.3 2.5,3.8 4.5,2.7 L 690,347.1 c 1,-0.5 2.2,-0.5 3.1,0.1 l 52.3,33.7 c 2,1.3 4.7,-0.2 4.7,-2.6 v -95 c 0,-2.6 -2.9,-4 -5,-2.4 l -51.9,40.6 c -1,0.8 -2.5,0.9 -3.5,0.2 L 625,280.1 c -2.1,-1.4 -4.7,0.1 -4.7,2.5 z"
       id="path13171" /></g></g></svg>