<?xml version="1.0" encoding="utf-8"?>
<!-- Generator: Adobe Illustrator 21.1.0, SVG Export Plug-In . SVG Version: 6.00 Build 0)  -->
<svg version="1.1" id="Layer_1" xmlns="http://www.w3.org/2000/svg" xmlns:xlink="http://www.w3.org/1999/xlink" x="0px" y="0px"
	 viewBox="0 0 1000 1000" style="enable-background:new 0 0 1000 1000;" xml:space="preserve">
<style type="text/css">
	.st0{fill:#8C2BD8;}
	.st1{fill:#231F20;stroke:#231F20;stroke-miterlimit:10;}
	.st2{fill:#FFFFFF;stroke:#231F20;stroke-miterlimit:10;}
</style>
<circle class="st0" cx="500" cy="500" r="500"/>
<g>
	<g>
		<path class="st1" d="M791.5,531.7c0,0,1,80.1-60.8,120.6c-16.7,10.9-59.6,12.7-84.9-1.8c-18.2-10.4-39.9-18.6-67.5-48.2
			c-56.8-60.9-111.6-30-135.2-11c-5.7,4.6-10.9,10-15.4,16.2c-9.8,13.4-42,48.2-114,52.2c-89.5,5-103.8-119.2-102.2-130.2L150.4,514
			c-2.1-14.9,73.7-115.9,163.3-109.7c89.3,6.2,117.4,75.3,117.4,75.3s67.2,91.8,142.6-5.5c75.3-97.3,154.1-61.9,154.1-61.9
			s106.5,46.4,130.6,96.3L791.5,531.7z"/>
	</g>
	<ellipse class="st2" cx="329.1" cy="532.6" rx="48.1" ry="58.6"/>
	<ellipse class="st2" cx="670.7" cy="532.6" rx="48.1" ry="58.6"/>
	<ellipse class="st1" cx="509.3" cy="617.1" rx="45.2" ry="23.6"/>
</g>
<path class="st1" d="M620.3,282.6v96.3c0,2.3,2.5,3.8,4.5,2.7l65.2-34.5c1-0.5,2.2-0.5,3.1,0.1l52.3,33.7c2,1.3,4.7-0.2,4.7-2.6v-95
	c0-2.6-2.9-4-5-2.4l-51.9,40.6c-1,0.8-2.5,0.9-3.5,0.2L625,280.1C622.9,278.7,620.3,280.2,620.3,282.6z"/>
</svg>
