<?xml version="1.0" encoding="UTF-8" standalone="no"?>
<!-- Generator: Adobe Illustrator 21.1.0, SVG Export Plug-In . SVG Version: 6.00 Build 0)  -->

<svg
   version="1.1"
   id="Layer_1"
   x="0px"
   y="0px"
   viewBox="0 0 1000 1000"
   style="enable-background:new 0 0 1000 1000;"
   xml:space="preserve"
   sodipodi:docname="logo_square.svg"
   inkscape:export-filename="../icons/favicon-48x48.png"
   inkscape:export-xdpi="4.6079998"
   inkscape:export-ydpi="4.6079998"
   inkscape:version="1.2.2 (b0a8486541, 2022-12-01)"
   xmlns:inkscape="http://www.inkscape.org/namespaces/inkscape"
   xmlns:sodipodi="http://sodipodi.sourceforge.net/DTD/sodipodi-0.dtd"
   xmlns="http://www.w3.org/2000/svg"
   xmlns:svg="http://www.w3.org/2000/svg"><defs
   id="defs151" /><sodipodi:namedview
   id="namedview149"
   pagecolor="#ffffff"
   bordercolor="#111111"
   borderopacity="1"
   inkscape:showpageshadow="0"
   inkscape:pageopacity="0"
   inkscape:pagecheckerboard="1"
   inkscape:deskcolor="#d1d1d1"
   showgrid="false"
   inkscape:zoom="0.236"
   inkscape:cx="495.76271"
   inkscape:cy="502.11864"
   inkscape:window-width="1920"
   inkscape:window-height="1056"
   inkscape:window-x="1920"
   inkscape:window-y="0"
   inkscape:window-maximized="1"
   inkscape:current-layer="Layer_1" />
<style
   type="text/css"
   id="style130">
	.st0{fill:#8C2BD8;}
	.st1{fill:#231F20;stroke:#231F20;stroke-miterlimit:10;}
	.st2{fill:#FFFFFF;stroke:#231F20;stroke-miterlimit:10;}
</style>
<rect
   style="fill:#8c2bd8;stroke-width:6;stroke-linecap:round;stroke-linejoin:round;fill-opacity:1"
   id="rect480"
   width="1000"
   height="1000"
   x="0"
   y="0" />
<g
   id="g144"
   transform="matrix(1.1611339,0,0,1.1611339,-81.287907,-75.772378)">
	<g
   id="g136">
		<path
   class="st1"
   d="m 791.5,531.7 c 0,0 1,80.1 -60.8,120.6 -16.7,10.9 -59.6,12.7 -84.9,-1.8 -18.2,-10.4 -39.9,-18.6 -67.5,-48.2 -56.8,-60.9 -111.6,-30 -135.2,-11 -5.7,4.6 -10.9,10 -15.4,16.2 -9.8,13.4 -42,48.2 -114,52.2 -89.5,5 -103.8,-119.2 -102.2,-130.2 L 150.4,514 c -2.1,-14.9 73.7,-115.9 163.3,-109.7 89.3,6.2 117.4,75.3 117.4,75.3 0,0 67.2,91.8 142.6,-5.5 75.3,-97.3 154.1,-61.9 154.1,-61.9 0,0 106.5,46.4 130.6,96.3 z"
   id="path134" />
	</g>
	<ellipse
   class="st2"
   cx="329.10001"
   cy="532.59998"
   rx="48.099998"
   ry="58.599998"
   id="ellipse138" />
	<ellipse
   class="st2"
   cx="670.70001"
   cy="532.59998"
   rx="48.099998"
   ry="58.599998"
   id="ellipse140" />
	<ellipse
   class="st1"
   cx="509.29999"
   cy="617.09998"
   rx="45.200001"
   ry="23.6"
   id="ellipse142" />
</g>
<path
   class="st1"
   d="m 638.96343,252.36405 v 111.8172 c 0,2.6706 2.90284,4.4123 5.22511,3.13506 l 75.70592,-40.05912 c 1.16114,-0.58057 2.5545,-0.58057 3.59952,0.11611 l 60.7273,39.13021 c 2.32227,1.50948 5.45733,-0.23222 5.45733,-3.01894 V 253.17685 c 0,-3.01895 -3.36729,-4.64454 -5.80567,-2.78672 l -60.26285,47.14203 c -1.16113,0.92891 -2.90283,1.04502 -4.06397,0.23223 l -75.12536,-48.30317 c -2.43838,-1.62559 -5.45733,0.11611 -5.45733,2.90283 z"
   id="path146"
   style="stroke-width:1.16113" />
</svg>
